<svg width="128" height="128" viewBox="0 0 128 128" fill="none" xmlns="http://www.w3.org/2000/svg">
<path d="M64 0C28.8 0 0 28.8 0 64C0 99.2001 28.8 128 64 128C99.2001 128 128 99.2001 128 64C128 28.8 99.2001 0 64 0ZM90.8802 81.9198C94.0801 76.7998 96.0003 70.4002 96.0003 64C96.0003 57.5998 94.0801 51.2001 90.8802 46.08L104.32 32.64C111.36 41.6 115.2 52.4798 115.2 64C115.2 75.5202 111.36 86.4003 104.32 95.3602L90.8802 81.9198ZM44.8001 64C44.8001 53.1199 53.1199 44.8001 64 44.8001C74.8801 44.8001 83.2 53.1199 83.2 64C83.2 74.8801 74.8801 83.2 64 83.2C53.1199 83.2 44.8001 74.8801 44.8001 64ZM95.3602 23.68L81.9198 37.12C76.7998 33.92 70.4002 32 64 32C57.5998 32 51.2001 33.92 46.08 37.12L32.64 23.68C41.6 16.64 52.4798 12.8 64 12.8C75.5202 12.8 86.4003 16.64 95.3602 23.68ZM23.68 32.64L37.12 46.08C33.92 51.2001 32 57.5998 32 64C32 70.4002 33.92 76.7998 37.12 81.9198L23.68 95.3602C16.64 86.4003 12.8 75.5202 12.8 64C12.8 52.4798 16.64 41.6 23.68 32.64ZM32.64 104.32L46.08 90.8802C51.2001 94.0801 57.5998 96.0003 64 96.0003C70.4002 96.0003 76.7998 94.0801 81.9198 90.8802L95.3602 104.32C86.4003 111.36 75.5202 115.2 64 115.2C52.4798 115.2 41.6 111.36 32.64 104.32Z" fill="#DD5784"/>
</svg>
